<?xml version="1.0" encoding="UTF-8"?>
<svg xmlns="http://www.w3.org/2000/svg" xmlns:mydata="http://www.w3.org/2000/svg" xmlns:xlink="http://www.w3.org/1999/xlink" id="Calque_1" version="1.1" viewBox="0 0 420 84.9">
  <defs>
    <style>
      .st0, .st1 {
        fill: #8a47cc;
      }

      .st1 {
        fill-rule: evenodd;
      }
    </style>
  </defs>
  <g>
    <path class="st0" d="M125.5,83.3c-.2,0-.4,0-.6-.1-.2,0-.3-.2-.4-.3s-.2-.3-.3-.5c0-.2,0-.4,0-.6v-2.5h-.4c0,0-.1,0-.2,0s0-.1,0-.2v-.6l.8-.2.3-1.2c0-.2.1-.2.3-.2h.8v1.4h1.2v1h-1.2v2.4c0,.1,0,.2,0,.3s.1.1.2.1,0,0,.1,0,0,0,0,0,0,0,0,0c0,0,0,0,0,0s0,0,.1,0c0,0,0,0,0,0l.4.7c-.2.1-.4.2-.6.3s-.5.1-.7.1h0Z"></path>
    <path class="st0" d="M129.6,83.2v-4.9h.9c0,0,.1,0,.2,0,0,0,0,0,.1,0s0,0,0,.1,0,0,0,.2v.5c.3-.3.5-.5.7-.7s.5-.2.7-.2.4,0,.5.2l-.2,1.1c0,0,0,.1,0,.1s0,0-.2,0-.1,0-.2,0c0,0-.2,0-.3,0-.4,0-.7.2-.9.6v3h-1.5Z"></path>
    <path class="st0" d="M138.7,83.2c-.1,0-.2,0-.3,0,0,0-.1-.1-.2-.2v-.3c-.2.1-.3.2-.5.3-.1,0-.2.1-.4.2-.1,0-.3,0-.4.1-.1,0-.3,0-.5,0s-.4,0-.6,0c-.2,0-.3-.1-.5-.3s-.2-.3-.3-.4c0-.2-.1-.4-.1-.6s0-.4.1-.5.2-.3.5-.5.5-.3.9-.4c.4-.1.8-.2,1.4-.2v-.2c0-.3,0-.5-.2-.6-.1-.1-.3-.2-.5-.2s-.3,0-.4,0c-.1,0-.2,0-.3.1,0,0-.2,0-.3.1,0,0-.2,0-.3,0s-.2,0-.3,0-.1-.1-.2-.2l-.3-.5c.3-.3.6-.5,1-.6.4-.1.7-.2,1.2-.2s.6,0,.8.1.4.2.6.4c.2.2.3.4.4.6,0,.2.1.5.1.8v3.1h-.7ZM137.1,82.3c.2,0,.4,0,.5,0s.3-.2.4-.3v-.7c-.3,0-.5,0-.7,0-.2,0-.3,0-.4.1s-.2.1-.2.2,0,.2,0,.2c0,.2,0,.3.1.4s.2.1.4.1h0Z"></path>
    <path class="st0" d="M142.4,83.2v-4.9h.9c0,0,.2,0,.2,0s.1.1.1.2v.3c.2,0,.3-.2.4-.2.1,0,.2-.1.3-.2s.2,0,.4-.1.3,0,.4,0c.3,0,.5,0,.7.1s.4.2.5.4.2.4.3.6c0,.2.1.5.1.7v3.1h-1.5v-3.1c0-.2,0-.4-.2-.6-.1-.1-.3-.2-.5-.2s-.3,0-.5.1c-.1,0-.3.2-.4.3v3.5h-1.5Z"></path>
    <path class="st0" d="M152.9,79.4c0,0,0,.1-.1.1s0,0-.2,0-.1,0-.2,0-.1,0-.2,0c0,0-.2,0-.3,0-.1,0-.2,0-.3,0-.2,0-.3,0-.4.1,0,0-.1.2-.1.3s0,.2,0,.2c0,0,.2.1.3.2s.2,0,.4.1c.1,0,.3,0,.4.1.1,0,.3.1.4.2.1,0,.3.2.4.3s.2.2.3.4,0,.3,0,.5,0,.5-.1.7-.2.4-.4.5-.4.3-.6.3c-.3,0-.6.1-.9.1s-.3,0-.5,0c-.2,0-.3,0-.5-.1s-.3-.1-.4-.2-.2-.2-.3-.2l.3-.5c0,0,0-.1.1-.1s.1,0,.2,0,.2,0,.2,0c0,0,.1,0,.2.1s.2,0,.3.1c.1,0,.2,0,.4,0s.2,0,.3,0,.1,0,.2,0c0,0,0,0,.1-.1,0,0,0-.1,0-.2,0,0,0-.2,0-.2,0,0-.2-.1-.3-.2s-.2,0-.4-.1-.3,0-.4-.1-.3-.1-.4-.2-.3-.2-.4-.3-.2-.2-.3-.4c0-.2,0-.3,0-.6s0-.4.1-.6.2-.4.4-.5.4-.3.6-.3c.2,0,.5-.1.9-.1s.3,0,.5,0c.2,0,.3,0,.5.1.1,0,.3.1.4.2s.2.2.3.3l-.3.5Z"></path>
    <path class="st0" d="M156.2,83.2v-3.9h-.3c-.1,0-.2-.1-.3-.2,0,0-.1-.1-.1-.2v-.6h.7v-.3c0-.3,0-.5.1-.8,0-.2.2-.4.4-.6.2-.2.4-.3.6-.4.2,0,.5-.1.8-.1s.2,0,.3,0c.1,0,.2,0,.3,0v.7c0,0,0,0,0,.1,0,0,0,0,0,0s0,0-.1,0,0,0-.1,0c-.1,0-.2,0-.3,0-.1,0-.2,0-.3.1,0,0-.1.1-.2.3,0,.1,0,.2,0,.4v.2h1.2v1h-1.1v3.9h-1.5Z"></path>
    <path class="st0" d="M163.6,78.3c.4,0,.7,0,1,.2.3.1.6.3.8.5.2.2.4.5.5.8.1.3.2.7.2,1s0,.7-.2,1.1-.3.6-.5.8c-.2.2-.5.4-.8.5-.3.1-.6.2-1,.2s-.7,0-1-.2c-.3-.1-.6-.3-.8-.5s-.4-.5-.5-.8c-.1-.3-.2-.7-.2-1.1s0-.7.2-1,.3-.6.5-.8c.2-.2.5-.4.8-.5s.6-.2,1-.2ZM163.6,82.2c.3,0,.6-.1.7-.4.2-.2.2-.6.2-1.1s0-.8-.2-1.1c-.2-.2-.4-.4-.7-.4s-.6.1-.8.4-.2.6-.2,1.1,0,.8.2,1.1c.2.2.4.4.8.4Z"></path>
    <path class="st0" d="M168.9,83.2v-4.9h.9c0,0,.1,0,.2,0,0,0,0,0,.1,0s0,0,0,.1,0,0,0,.2v.5c.3-.3.5-.5.7-.7s.5-.2.7-.2.4,0,.5.2l-.2,1.1c0,0,0,.1,0,.1s0,0-.2,0-.1,0-.2,0c0,0-.2,0-.3,0-.4,0-.7.2-.9.6v3h-1.5Z"></path>
    <path class="st0" d="M174.7,83.2v-4.9h.9c0,0,.2,0,.2,0s.1.1.1.2v.3c.2,0,.2-.2.3-.2s.2-.1.3-.2c.1,0,.2,0,.3-.1.1,0,.2,0,.4,0,.3,0,.5,0,.7.2.2.2.3.4.4.6,0-.2.2-.3.3-.4.1-.1.2-.2.4-.3s.3-.1.4-.1.3,0,.5,0c.3,0,.5,0,.7.1.2,0,.4.2.5.4s.3.4.3.6c0,.2.1.5.1.8v3.1h-1.5v-3.1c0-.5-.2-.8-.7-.8s-.4,0-.5.2c-.1.1-.2.3-.2.6v3.1h-1.5v-3.1c0-.3,0-.5-.2-.6-.1-.1-.3-.2-.5-.2s-.3,0-.4,0-.2.1-.3.2v3.5h-1.5Z"></path>
    <path class="st0" d="M186.9,78.3c.3,0,.6,0,.9.2.3.1.5.2.7.4.2.2.3.4.5.7s.2.6.2.9,0,.2,0,.3c0,0,0,.1,0,.2s0,0-.1,0c0,0,0,0-.2,0h-2.8c0,.4.2.7.4.9s.5.3.8.3.3,0,.4,0,.2,0,.3-.1c0,0,.2,0,.3-.1,0,0,.2,0,.3,0s.2,0,.3.1l.4.5c-.2.2-.3.3-.5.4s-.4.2-.5.3-.4.1-.6.1c-.2,0-.4,0-.5,0-.3,0-.7,0-1-.2-.3-.1-.6-.3-.8-.5-.2-.2-.4-.5-.5-.8s-.2-.7-.2-1.1,0-.6.2-.9c.1-.3.3-.6.5-.8s.5-.4.8-.5.6-.2,1-.2h0ZM187,79.3c-.3,0-.5,0-.7.2s-.3.4-.3.7h1.8c0-.1,0-.2,0-.3s0-.2-.1-.3c0,0-.2-.2-.3-.2s-.2,0-.4,0h0Z"></path>
    <path class="st0" d="M195.6,78.9c0,.1,0,.2,0,.3,0,0,0,.2-.1.2l-2,2.7h2.2v1.1h-3.9v-.6c0,0,0-.1,0-.2s0-.2.1-.3l2.1-2.7h-2.1v-1.1h3.8v.6Z"></path>
    <path class="st0" d="M205,83.2h-1.3l-1.9-4.9h1.2c.1,0,.2,0,.3,0,0,0,.1.1.1.2l.7,2.2c0,.2.1.4.2.5s0,.3.1.5c0-.2,0-.3.1-.5,0-.2.1-.3.2-.5l.7-2.2c0,0,0-.1.1-.2s.2,0,.2,0h1.2l-1.9,4.9Z"></path>
    <path class="st0" d="M211.4,78.3c.4,0,.7,0,1,.2s.6.3.8.5c.2.2.4.5.5.8s.2.7.2,1,0,.7-.2,1.1-.3.6-.5.8-.5.4-.8.5c-.3.1-.6.2-1,.2s-.7,0-1-.2c-.3-.1-.6-.3-.8-.5-.2-.2-.4-.5-.5-.8s-.2-.7-.2-1.1,0-.7.2-1,.3-.6.5-.8c.2-.2.5-.4.8-.5.3-.1.6-.2,1-.2ZM211.4,82.2c.3,0,.6-.1.7-.4.2-.2.2-.6.2-1.1s0-.8-.2-1.1c-.2-.2-.4-.4-.7-.4s-.6.1-.8.4c-.2.2-.2.6-.2,1.1s0,.8.2,1.1.4.4.8.4Z"></path>
    <path class="st0" d="M218.4,83.3c-.2,0-.4,0-.6-.1-.2,0-.3-.2-.4-.3s-.2-.3-.3-.5c0-.2,0-.4,0-.6v-2.5h-.4c0,0-.1,0-.2,0s0-.1,0-.2v-.6l.8-.2.3-1.2c0-.2.1-.2.3-.2h.8v1.4h1.2v1h-1.2v2.4c0,.1,0,.2,0,.3s.1.1.2.1,0,0,.1,0,0,0,0,0,0,0,0,0c0,0,0,0,0,0s0,0,.1,0,0,0,0,0l.4.7c-.2.1-.4.2-.6.3-.2,0-.5.1-.7.1h0Z"></path>
    <path class="st0" d="M222.5,83.2v-4.9h.9c0,0,.1,0,.2,0,0,0,0,0,.1,0,0,0,0,0,0,.1s0,0,0,.2v.5c.3-.3.5-.5.7-.7s.5-.2.7-.2.4,0,.5.2l-.2,1.1c0,0,0,.1,0,.1,0,0,0,0-.2,0s-.1,0-.2,0-.2,0-.3,0c-.4,0-.7.2-.9.6v3h-1.5Z"></path>
    <path class="st0" d="M230.4,78.3c.3,0,.6,0,.9.2.3.1.5.2.7.4s.3.4.5.7.2.6.2.9,0,.2,0,.3c0,0,0,.1,0,.2s0,0-.1,0c0,0,0,0-.2,0h-2.8c0,.4.2.7.4.9s.5.3.8.3.3,0,.4,0,.2,0,.3-.1c0,0,.2,0,.3-.1,0,0,.2,0,.3,0s.2,0,.3.1l.4.5c-.2.2-.3.3-.5.4s-.4.2-.5.3-.4.1-.6.1c-.2,0-.4,0-.5,0-.3,0-.7,0-1-.2s-.6-.3-.8-.5-.4-.5-.5-.8-.2-.7-.2-1.1,0-.6.2-.9.3-.6.5-.8c.2-.2.5-.4.8-.5s.6-.2,1-.2h0ZM230.5,79.3c-.3,0-.5,0-.7.2s-.3.4-.3.7h1.8c0-.1,0-.2,0-.3s0-.2-.1-.3c0,0-.2-.2-.3-.2-.1,0-.2,0-.4,0h0Z"></path>
    <path class="st0" d="M241.3,78.3c.3,0,.6,0,.9.2.3.1.5.2.7.4s.3.4.5.7.2.6.2.9,0,.2,0,.3c0,0,0,.1,0,.2s0,0-.1,0c0,0,0,0-.2,0h-2.8c0,.4.2.7.4.9s.5.3.8.3.3,0,.4,0,.2,0,.3-.1c0,0,.2,0,.3-.1,0,0,.2,0,.3,0s.2,0,.3.1l.4.5c-.2.2-.3.3-.5.4s-.4.2-.5.3-.4.1-.6.1c-.2,0-.4,0-.5,0-.3,0-.7,0-1-.2s-.6-.3-.8-.5-.4-.5-.5-.8-.2-.7-.2-1.1,0-.6.2-.9.3-.6.5-.8c.2-.2.5-.4.8-.5s.6-.2,1-.2h0ZM241.4,79.3c-.3,0-.5,0-.7.2s-.3.4-.3.7h1.8c0-.1,0-.2,0-.3s0-.2-.1-.3c0,0-.2-.2-.3-.2-.1,0-.2,0-.4,0h0ZM243.3,76.3l-1.2,1.2c0,0-.1.1-.2.2,0,0-.2,0-.3,0h-.9l.6-1.2c0,0,.1-.2.2-.2s.2,0,.3,0h1.4Z"></path>
    <path class="st0" d="M249.9,79.5c0,0,0,0-.1.1,0,0,0,0-.2,0s-.1,0-.2,0-.1,0-.2-.1c0,0-.2,0-.3-.1s-.2,0-.4,0-.3,0-.5,0-.2.2-.3.3c0,.1-.1.3-.2.5s0,.4,0,.6c0,.5,0,.8.3,1.1s.4.4.7.4.3,0,.4,0,.2,0,.3-.1c0,0,.1-.1.2-.1s.1,0,.2,0,.2,0,.3.1l.4.5c-.2.2-.3.3-.5.4s-.3.2-.5.3-.4.1-.5.1c-.2,0-.3,0-.5,0-.3,0-.6,0-.9-.2s-.5-.3-.7-.5-.4-.5-.5-.8-.2-.7-.2-1.1,0-.7.2-1,.3-.6.5-.8.5-.4.8-.5c.3-.1.7-.2,1.1-.2s.7,0,1,.2c.3.1.6.3.8.5l-.4.5Z"></path>
    <path class="st0" d="M252.9,83.2v-4.9h.9c0,0,.1,0,.2,0,0,0,0,0,.1,0,0,0,0,0,0,.1s0,0,0,.2v.5c.3-.3.5-.5.7-.7s.5-.2.7-.2.4,0,.5.2l-.2,1.1c0,0,0,.1,0,.1,0,0,0,0-.2,0s-.1,0-.2,0-.2,0-.3,0c-.4,0-.7.2-.9.6v3h-1.5Z"></path>
    <path class="st0" d="M262.1,83.2c-.1,0-.2,0-.3,0,0,0-.1-.1-.2-.2v-.3c-.2.1-.3.2-.5.3s-.2.1-.4.2c-.1,0-.3,0-.4.1-.1,0-.3,0-.5,0s-.4,0-.6,0-.3-.1-.5-.3-.2-.3-.3-.4c0-.2-.1-.4-.1-.6s0-.4.1-.5.2-.3.5-.5.5-.3.9-.4c.4-.1.8-.2,1.4-.2v-.2c0-.3,0-.5-.2-.6-.1-.1-.3-.2-.5-.2s-.3,0-.4,0c-.1,0-.2,0-.3.1,0,0-.2,0-.3.1,0,0-.2,0-.3,0s-.2,0-.3,0c0,0-.1-.1-.2-.2l-.3-.5c.3-.3.6-.5,1-.6.4-.1.7-.2,1.2-.2s.6,0,.8.1c.2,0,.4.2.6.4.2.2.3.4.4.6,0,.2.1.5.1.8v3.1h-.7ZM260.4,82.3c.2,0,.4,0,.5,0,.1,0,.3-.2.4-.3v-.7c-.3,0-.5,0-.7,0-.2,0-.3,0-.4.1-.1,0-.2.1-.2.2s0,.2,0,.2c0,.2,0,.3.1.4,0,0,.2.1.4.1h0Z"></path>
    <path class="st0" d="M265.8,83.2v-4.9h.9c0,0,.2,0,.2,0s.1.1.1.2v.3c.2,0,.3-.2.4-.2s.2-.1.3-.2.2,0,.4-.1.3,0,.4,0c.3,0,.5,0,.7.1.2,0,.4.2.5.4.1.2.2.4.3.6,0,.2.1.5.1.7v3.1h-1.5v-3.1c0-.2,0-.4-.2-.6s-.3-.2-.5-.2-.3,0-.5.1c-.1,0-.3.2-.4.3v3.5h-1.5Z"></path>
    <path class="st0" d="M279.1,78.3c.3,0,.6,0,.9.2.3.1.5.2.7.4s.3.4.5.7.2.6.2.9,0,.2,0,.3c0,0,0,.1,0,.2s0,0-.1,0c0,0,0,0-.2,0h-2.8c0,.4.2.7.4.9s.5.3.8.3.3,0,.4,0,.2,0,.3-.1c0,0,.2,0,.3-.1,0,0,.2,0,.3,0s.2,0,.3.1l.4.5c-.2.2-.3.3-.5.4s-.4.2-.5.3-.4.1-.6.1c-.2,0-.4,0-.5,0-.3,0-.7,0-1-.2s-.6-.3-.8-.5-.4-.5-.5-.8-.2-.7-.2-1.1,0-.6.2-.9.3-.6.5-.8c.2-.2.5-.4.8-.5s.6-.2,1-.2h0ZM279.2,79.3c-.3,0-.5,0-.7.2s-.3.4-.3.7h1.8c0-.1,0-.2,0-.3s0-.2-.1-.3c0,0-.2-.2-.3-.2-.1,0-.2,0-.4,0h0Z"></path>
    <path class="st0" d="M284.1,83.2v-4.9h.9c0,0,.2,0,.2,0s.1.1.1.2v.3c.2,0,.3-.2.4-.2s.2-.1.3-.2.2,0,.4-.1.3,0,.4,0c.3,0,.5,0,.7.1.2,0,.4.2.5.4.1.2.2.4.3.6,0,.2.1.5.1.7v3.1h-1.5v-3.1c0-.2,0-.4-.2-.6s-.3-.2-.5-.2-.3,0-.5.1c-.1,0-.3.2-.4.3v3.5h-1.5Z"></path>
    <path class="st0" d="M298.8,83.2c-.1,0-.2,0-.3,0,0,0-.1-.1-.2-.2v-.3c-.2.1-.3.2-.5.3s-.2.1-.4.2c-.1,0-.3,0-.4.1-.1,0-.3,0-.5,0s-.4,0-.6,0-.3-.1-.5-.3-.2-.3-.3-.4c0-.2-.1-.4-.1-.6s0-.4.1-.5.2-.3.5-.5.5-.3.9-.4c.4-.1.8-.2,1.4-.2v-.2c0-.3,0-.5-.2-.6-.1-.1-.3-.2-.5-.2s-.3,0-.4,0c-.1,0-.2,0-.3.1,0,0-.2,0-.3.1,0,0-.2,0-.3,0s-.2,0-.3,0c0,0-.1-.1-.2-.2l-.3-.5c.3-.3.6-.5,1-.6.4-.1.7-.2,1.2-.2s.6,0,.8.1c.2,0,.4.2.6.4.2.2.3.4.4.6,0,.2.1.5.1.8v3.1h-.7ZM297.1,82.3c.2,0,.4,0,.5,0,.1,0,.3-.2.4-.3v-.7c-.3,0-.5,0-.7,0-.2,0-.3,0-.4.1-.1,0-.2.1-.2.2s0,.2,0,.2c0,.2,0,.3.1.4,0,0,.2.1.4.1h0Z"></path>
    <path class="st0" d="M302.7,83.2v-3.9h-.3c-.1,0-.2-.1-.3-.2,0,0-.1-.1-.1-.2v-.6h.7v-.3c0-.3,0-.5.1-.8,0-.2.2-.4.4-.6.2-.2.4-.3.6-.4.2,0,.5-.1.8-.1s.2,0,.3,0c.1,0,.2,0,.3,0v.7c0,0,0,0,0,.1,0,0,0,0,0,0,0,0,0,0-.1,0,0,0,0,0-.1,0-.1,0-.2,0-.3,0-.1,0-.2,0-.3.1,0,0-.1.1-.2.3,0,.1,0,.2,0,.4v.2h1.2v1h-1.1v3.9h-1.5Z"></path>
    <path class="st0" d="M308.1,83.2v-3.9h-.3c-.1,0-.2-.1-.3-.2,0,0-.1-.1-.1-.2v-.6h.7v-.3c0-.3,0-.5.1-.8,0-.2.2-.4.4-.6.2-.2.4-.3.6-.4.2,0,.5-.1.8-.1s.2,0,.3,0c.1,0,.2,0,.3,0v.7c0,0,0,0,0,.1,0,0,0,0,0,0,0,0,0,0-.1,0,0,0,0,0-.1,0-.1,0-.2,0-.3,0-.1,0-.2,0-.3.1,0,0-.1.1-.2.3,0,.1,0,.2,0,.4v.2h1.2v1h-1.1v3.9h-1.5Z"></path>
    <path class="st0" d="M314.8,78.3v4.9h-1.5v-4.9h1.5ZM314.9,77c0,.1,0,.2,0,.3,0,.1-.1.2-.2.3s-.2.1-.3.2-.2,0-.3,0-.2,0-.3,0-.2-.1-.3-.2-.1-.2-.2-.3,0-.2,0-.3,0-.2,0-.3.1-.2.2-.3.2-.1.3-.2.2,0,.3,0,.2,0,.3,0,.2.1.3.2c0,0,.1.2.2.3s0,.2,0,.3Z"></path>
    <path class="st0" d="M321.4,79.5c0,0,0,0-.1.1,0,0,0,0-.2,0s-.1,0-.2,0-.1,0-.2-.1c0,0-.2,0-.3-.1s-.2,0-.4,0-.3,0-.5,0-.2.2-.3.3c0,.1-.1.3-.2.5s0,.4,0,.6c0,.5,0,.8.3,1.1s.4.4.7.4.3,0,.4,0,.2,0,.3-.1c0,0,.1-.1.2-.1s.1,0,.2,0,.2,0,.3.1l.4.5c-.2.2-.3.3-.5.4s-.3.2-.5.3-.4.1-.5.1c-.2,0-.3,0-.5,0-.3,0-.6,0-.9-.2s-.5-.3-.7-.5-.4-.5-.5-.8-.2-.7-.2-1.1,0-.7.2-1,.3-.6.5-.8.5-.4.8-.5c.3-.1.7-.2,1.1-.2s.7,0,1,.2c.3.1.6.3.8.5l-.4.5Z"></path>
    <path class="st0" d="M324.5,83.2v-7.1h1.5v2.6c.2-.2.4-.3.6-.4s.5-.1.7-.1.5,0,.7.1c.2,0,.4.2.5.4.1.2.2.4.3.6,0,.2.1.5.1.7v3.1h-1.5v-3.1c0-.2,0-.4-.2-.6s-.3-.2-.5-.2-.3,0-.5.1c-.1,0-.3.2-.4.3v3.5h-1.5Z"></path>
    <path class="st0" d="M335.3,83.2c-.1,0-.2,0-.3,0,0,0-.1-.1-.2-.2v-.3c-.2.1-.3.2-.5.3s-.2.1-.4.2c-.1,0-.3,0-.4.1-.1,0-.3,0-.5,0s-.4,0-.6,0-.3-.1-.5-.3-.2-.3-.3-.4c0-.2-.1-.4-.1-.6s0-.4.1-.5.2-.3.5-.5.5-.3.9-.4c.4-.1.8-.2,1.4-.2v-.2c0-.3,0-.5-.2-.6-.1-.1-.3-.2-.5-.2s-.3,0-.4,0c-.1,0-.2,0-.3.1,0,0-.2,0-.3.1,0,0-.2,0-.3,0s-.2,0-.3,0c0,0-.1-.1-.2-.2l-.3-.5c.3-.3.6-.5,1-.6.4-.1.7-.2,1.2-.2s.6,0,.8.1c.2,0,.4.2.6.4.2.2.3.4.4.6,0,.2.1.5.1.8v3.1h-.7ZM333.6,82.3c.2,0,.4,0,.5,0,.1,0,.3-.2.4-.3v-.7c-.3,0-.5,0-.7,0-.2,0-.3,0-.4.1-.1,0-.2.1-.2.2s0,.2,0,.2c0,.2,0,.3.1.4,0,0,.2.1.4.1h0Z"></path>
    <path class="st0" d="M340.7,78.2c.2,0,.4,0,.6,0s.4,0,.5.2h1.5v.5c0,0,0,.1,0,.2s-.1,0-.2.1h-.4c0,.2,0,.4,0,.5,0,.2,0,.5-.2.7s-.2.4-.4.5c-.2.1-.4.2-.6.3-.2,0-.5.1-.8.1s-.3,0-.4,0c-.1,0-.2.1-.2.2s0,.1.1.2c0,0,.2,0,.3,0,.1,0,.3,0,.5,0,.2,0,.4,0,.6,0,.2,0,.4,0,.6,0s.3.1.5.2c.1,0,.3.2.3.4,0,.2.1.3.1.6s0,.4-.2.6-.3.4-.5.6-.5.3-.8.4-.6.1-1,.1-.7,0-1-.1-.5-.2-.7-.3c-.2-.1-.3-.3-.4-.4s-.1-.3-.1-.5,0-.4.2-.6c.1-.1.3-.3.5-.4-.1,0-.2-.2-.3-.3s0-.3,0-.4,0-.1,0-.2c0,0,0-.2.1-.2,0,0,.1-.1.2-.2,0,0,.2-.1.3-.2-.3-.1-.5-.3-.6-.5-.1-.2-.2-.5-.2-.8s0-.5.2-.7.2-.4.4-.5.4-.2.6-.3c.2,0,.5-.1.8-.1h0ZM341.8,83.4c0,0,0-.1,0-.2s-.1,0-.2-.1c0,0-.2,0-.3,0s-.2,0-.4,0c-.1,0-.3,0-.4,0-.1,0-.3,0-.4,0,0,0-.2.1-.2.2s0,.2,0,.3,0,.1,0,.2c0,0,0,.1.2.1,0,0,.2,0,.3,0,.1,0,.3,0,.5,0s.4,0,.5,0c.1,0,.2,0,.3-.1s.1,0,.2-.2,0-.1,0-.2h0ZM340.7,80.5c.2,0,.4,0,.5-.2s.2-.3.2-.5,0-.4-.2-.5-.3-.2-.5-.2-.4,0-.5.2-.2.3-.2.5,0,.2,0,.3,0,.1.1.2.1.1.2.1c0,0,.2,0,.3,0h0Z"></path>
    <path class="st0" d="M348,78.3c.3,0,.6,0,.9.2.3.1.5.2.7.4s.3.4.5.7.2.6.2.9,0,.2,0,.3c0,0,0,.1,0,.2s0,0-.1,0c0,0,0,0-.2,0h-2.8c0,.4.2.7.4.9s.5.3.8.3.3,0,.4,0,.2,0,.3-.1c0,0,.2,0,.3-.1,0,0,.2,0,.3,0s.2,0,.3.1l.4.5c-.2.2-.3.3-.5.4s-.4.2-.5.3-.4.1-.6.1c-.2,0-.4,0-.5,0-.3,0-.7,0-1-.2s-.6-.3-.8-.5-.4-.5-.5-.8-.2-.7-.2-1.1,0-.6.2-.9.3-.6.5-.8c.2-.2.5-.4.8-.5s.6-.2,1-.2h0ZM348,79.3c-.3,0-.5,0-.7.2s-.3.4-.3.7h1.8c0-.1,0-.2,0-.3s0-.2-.1-.3c0,0-.2-.2-.3-.2-.1,0-.2,0-.4,0h0Z"></path>
    <path class="st0" d="M360.3,83.2c0,0-.2,0-.2,0s-.1-.1-.1-.2v-.4c-.2.1-.3.2-.4.3-.1,0-.2.2-.3.2-.1,0-.3.1-.4.1-.1,0-.3,0-.5,0-.3,0-.5,0-.7-.2-.2-.1-.4-.3-.6-.5-.2-.2-.3-.5-.4-.8s-.1-.7-.1-1.1,0-.7.2-1c.1-.3.2-.6.4-.8s.4-.4.7-.5c.3-.1.5-.2.9-.2s.5,0,.6.1.3.2.5.3v-2.5h1.5v7.1h-.9ZM358.8,82.2c.1,0,.2,0,.3,0,0,0,.2,0,.2,0s.1,0,.2-.1.1-.1.2-.2v-2.1c-.1-.1-.2-.2-.4-.3s-.3,0-.4,0-.3,0-.4,0-.2.1-.3.3-.1.3-.2.5c0,.2,0,.4,0,.7s0,.5,0,.7c0,.2,0,.3.2.4s.1.2.2.2.2,0,.3,0h0Z"></path>
    <path class="st0" d="M366.3,84.5c0,0,0,.2-.2.2s-.2,0-.3,0h-1.1l.9-2-2-4.5h1.3c.1,0,.2,0,.3,0s.1.1.1.2l.8,2.1c0,.2.1.4.2.6,0-.1,0-.2.1-.3,0,0,0-.2.1-.3l.7-2.1c0,0,0-.1.1-.2,0,0,.2,0,.2,0h1.2l-2.6,6.2Z"></path>
    <path class="st0" d="M371.5,83.2v-4.9h.9c0,0,.2,0,.2,0s.1.1.1.2v.3c.2,0,.3-.2.4-.2s.2-.1.3-.2.2,0,.4-.1.3,0,.4,0c.3,0,.5,0,.7.1.2,0,.4.2.5.4.1.2.2.4.3.6,0,.2.1.5.1.7v3.1h-1.5v-3.1c0-.2,0-.4-.2-.6s-.3-.2-.5-.2-.3,0-.5.1c-.1,0-.3.2-.4.3v3.5h-1.5Z"></path>
    <path class="st0" d="M382.3,83.2c-.1,0-.2,0-.3,0,0,0-.1-.1-.2-.2v-.3c-.2.1-.3.2-.5.3s-.2.1-.4.2c-.1,0-.3,0-.4.1-.1,0-.3,0-.5,0s-.4,0-.6,0-.3-.1-.5-.3-.2-.3-.3-.4c0-.2-.1-.4-.1-.6s0-.4.1-.5.2-.3.5-.5.5-.3.9-.4c.4-.1.8-.2,1.4-.2v-.2c0-.3,0-.5-.2-.6-.1-.1-.3-.2-.5-.2s-.3,0-.4,0c-.1,0-.2,0-.3.1,0,0-.2,0-.3.1,0,0-.2,0-.3,0s-.2,0-.3,0c0,0-.1-.1-.2-.2l-.3-.5c.3-.3.6-.5,1-.6.4-.1.7-.2,1.2-.2s.6,0,.8.1c.2,0,.4.2.6.4.2.2.3.4.4.6,0,.2.1.5.1.8v3.1h-.7ZM380.6,82.3c.2,0,.4,0,.5,0,.1,0,.3-.2.4-.3v-.7c-.3,0-.5,0-.7,0-.2,0-.3,0-.4.1-.1,0-.2.1-.2.2s0,.2,0,.2c0,.2,0,.3.1.4,0,0,.2.1.4.1h0Z"></path>
    <path class="st0" d="M386,83.2v-4.9h.9c0,0,.2,0,.2,0s.1.1.1.2v.3c.2,0,.2-.2.3-.2s.2-.1.3-.2c.1,0,.2,0,.3-.1.1,0,.2,0,.4,0,.3,0,.5,0,.7.2.2.2.3.4.4.6,0-.2.2-.3.3-.4s.2-.2.4-.3c.1,0,.3-.1.4-.1s.3,0,.5,0c.3,0,.5,0,.7.1s.4.2.5.4c.1.2.3.4.3.6,0,.2.1.5.1.8v3.1h-1.5v-3.1c0-.5-.2-.8-.7-.8s-.4,0-.5.2-.2.3-.2.6v3.1h-1.5v-3.1c0-.3,0-.5-.2-.6s-.3-.2-.5-.2-.3,0-.4,0c-.1,0-.2.1-.3.2v3.5h-1.5Z"></path>
    <path class="st0" d="M397.6,78.3v4.9h-1.5v-4.9h1.5ZM397.8,77c0,.1,0,.2,0,.3,0,.1-.1.2-.2.3s-.2.1-.3.2-.2,0-.3,0-.2,0-.3,0-.2-.1-.3-.2-.1-.2-.2-.3,0-.2,0-.3,0-.2,0-.3.1-.2.2-.3.2-.1.3-.2.2,0,.3,0,.2,0,.3,0,.2.1.3.2c0,0,.1.2.2.3s0,.2,0,.3Z"></path>
    <path class="st0" d="M405.1,78.3v6.5h-1.5v-2.1c-.2.2-.4.3-.6.4s-.5.2-.8.2-.5,0-.7-.2c-.2-.1-.4-.3-.6-.5-.2-.2-.3-.5-.4-.8s-.1-.7-.1-1.1,0-.7.2-1c.1-.3.2-.6.4-.8s.4-.4.7-.5c.3-.1.5-.2.9-.2s.3,0,.4,0c.1,0,.2,0,.3.1s.2.1.3.2.2.1.2.2v-.2c.1-.2.2-.2.4-.2h.9ZM402.7,82.2c.1,0,.2,0,.3,0,0,0,.2,0,.2,0s.1,0,.2-.1.1-.1.2-.2v-2.1c-.1-.1-.2-.2-.4-.3s-.3,0-.4,0-.3,0-.4,0-.2.1-.3.3-.1.3-.2.5c0,.2,0,.4,0,.7s0,.5,0,.7c0,.2,0,.3.2.4s.1.2.2.2.2,0,.3,0h0Z"></path>
    <path class="st0" d="M409.6,78.3v3.1c0,.2,0,.4.2.6.1.1.3.2.5.2s.3,0,.5,0c.1,0,.3-.2.4-.3v-3.5h1.5v4.9h-.9c-.2,0-.3,0-.4-.2v-.3c-.2,0-.3.2-.4.2-.1,0-.2.1-.3.2-.1,0-.2,0-.4.1s-.3,0-.4,0c-.3,0-.5,0-.7-.1-.2,0-.4-.2-.5-.4-.1-.2-.2-.4-.3-.6,0-.2-.1-.5-.1-.7v-3.1h1.5Z"></path>
    <path class="st0" d="M417.8,78.3c.3,0,.6,0,.9.2.3.1.5.2.7.4s.3.4.5.7.2.6.2.9,0,.2,0,.3c0,0,0,.1,0,.2s0,0-.1,0c0,0,0,0-.2,0h-2.8c0,.4.2.7.4.9s.5.3.8.3.3,0,.4,0,.2,0,.3-.1c0,0,.2,0,.3-.1,0,0,.2,0,.3,0s.2,0,.3.1l.4.5c-.2.2-.3.3-.5.4s-.4.2-.5.3-.4.1-.6.1c-.2,0-.4,0-.5,0-.3,0-.7,0-1-.2s-.6-.3-.8-.5-.4-.5-.5-.8-.2-.7-.2-1.1,0-.6.2-.9.3-.6.5-.8c.2-.2.5-.4.8-.5s.6-.2,1-.2h0ZM417.8,79.3c-.3,0-.5,0-.7.2s-.3.4-.3.7h1.8c0-.1,0-.2,0-.3s0-.2-.1-.3c0,0-.2-.2-.3-.2-.1,0-.2,0-.4,0h0Z"></path>
  </g>
  <g>
    <path class="st0" d="M136.5,68.1V17.9h-12.1v50.2h12.1ZM125.4,11.6c1.3,1.3,2.9,2,4.9,2s3.5-.7,4.9-2c1.3-1.3,2-2.9,2-4.9s-.7-3.4-2-4.8c-1.3-1.3-2.9-2-4.9-2s-3.5.7-4.9,2c-1.3,1.3-2,2.9-2,4.8s.7,3.5,2,4.9Z"></path>
    <path class="st0" d="M175.6,39.9v28h10.4l.2-28c0-4.3-1.1-8.2-3.2-11.6-2.2-3.3-5.1-5.8-8.6-7.6-3.5-1.8-7.3-2.7-11.4-2.7s-7.7.9-11.3,2.7c-3.6,1.8-6.5,4.5-8.6,7.8-2.1,3.4-3.2,7.2-3.2,11.5v28h10.4v-28c0-3.6,1.2-6.4,3.7-8.5,2.5-2.1,5.5-3.1,9.1-3.1s6.5,1,9,3.1,3.7,4.9,3.7,8.5h0Z"></path>
    <path class="st0" d="M190.8.3v67.5h12.1V26.1h8.2l2.9-10.7h-11.1V.3h-12.1Z"></path>
    <path class="st0" d="M227.7,22.3c-4.3,3-7.4,6.8-9.2,11.6-1.1,3-1.7,5.9-1.7,8.9,0,5.1,1.5,9.8,4.4,14.1,2.7,3.9,5.8,6.8,9.6,8.5,3.7,1.7,7.4,2.5,11,2.5s8.3-1,12-3.1c3.8-2,6.8-4.8,9.1-8.3l-10.1-3.9c-1.4,1.5-3,2.7-4.9,3.6s-4,1.2-6.1,1.2-3.6-.3-5.2-.9c-2-.7-3.7-1.9-5.2-3.4s-2.6-3.3-3.3-5.3l38.3-1h0c0,0,.2,0,.2,0,.2-1.3.3-2.6.3-4,0-5.1-1.4-9.8-4.3-14.1-2.7-3.9-5.9-6.7-9.6-8.4-3.8-1.7-7.4-2.5-10.9-2.5-5.2,0-9.9,1.5-14.2,4.4h0ZM228,38.3l.2-.6c1.1-2.9,2.9-5.2,5.5-6.8s5.3-2.5,8.3-2.5,3.6.3,5.2.9c2,.7,3.7,1.8,5.1,3.3s2.5,3.1,3.2,5l-27.5.6Z"></path>
    <path class="st0" d="M305.4,39.9v28h10.4l.2-28c0-4.3-1.1-8.2-3.2-11.6-2.2-3.3-5.1-5.8-8.6-7.6s-7.3-2.7-11.4-2.7-7.7.9-11.3,2.7c-3.6,1.8-6.5,4.5-8.6,7.8-2.1,3.4-3.2,7.2-3.2,11.5v28h10.4v-28c0-3.6,1.2-6.4,3.7-8.5,2.5-2.1,5.5-3.1,9.1-3.1s6.5,1,9,3.1c2.5,2.1,3.7,4.9,3.7,8.5h0Z"></path>
    <path class="st0" d="M338.4,57.5l-12.4-1.3-4.2,9.5,14.5,1.5c6.3.2,11.4-.8,15.2-3s6.2-5.4,7.3-9.8c.3-1.5.5-2.8.5-3.9,0-4.3-2.1-7.6-6.3-9.9-2.4-1.2-6.4-2.5-11.9-3.9-4.9-1.3-7.6-2.1-8.1-2.4-1.9-.7-2.9-1.7-2.9-2.8s0-.7,0-1c.6-2.2,2.8-3.3,6.7-3.2l13.2,1.2,3.3-9c-6.5-1-12.2-1.5-16.9-1.5s-7,.4-9.2,1.2c-2.7.9-4.7,2.7-6.3,5.3-1.5,2.6-2.3,5.4-2.3,8.5s.7,4.6,2,6.3,3.2,3,5.5,4.1c2.3,1,5.4,2.1,9.2,3.1l3.1.7c3.9.9,6.1,1.5,6.6,1.8,1.7.8,2.5,1.9,2.5,3.4s0,.7,0,.9c-.3,1.4-1.2,2.4-2.6,3.1-1.4.6-3.6.9-6.6.9h0Z"></path>
    <path class="st0" d="M375.2,68.1V17.9h-12.1v50.2h12.1ZM364,11.6c1.3,1.3,2.9,2,4.9,2s3.5-.7,4.9-2,2-2.9,2-4.9-.7-3.4-2-4.8c-1.3-1.3-2.9-2-4.9-2s-3.5.7-4.9,2-2,2.9-2,4.8.7,3.5,2,4.9Z"></path>
    <path class="st0" d="M380.3.3v67.5h12.1V26.1h8.2l2.9-10.7h-11.1V.3h-12.1Z"></path>
    <path class="st0" d="M419.4,68.1V17.9h-12.1v50.2h12.1ZM408.3,11.6c1.3,1.3,2.9,2,4.9,2s3.5-.7,4.9-2,2-2.9,2-4.9-.7-3.4-2-4.8c-1.3-1.3-2.9-2-4.9-2s-3.5.7-4.9,2-2,2.9-2,4.8.7,3.5,2,4.9Z"></path>
  </g>
  <path class="st1" d="M92.1,1.6H9.4C4.2,1.6,0,5.8,0,10.9v63.1c0,5.2,4.2,9.4,9.4,9.4h82.7c5.2,0,9.4-4.2,9.4-9.4V10.9c0-5.2-4.2-9.4-9.4-9.4h0ZM97.9,74c0,3.2-2.6,5.9-5.8,5.9H9.4c-3.2,0-5.9-2.6-5.9-5.9V10.9c0-3.2,2.6-5.9,5.9-5.9h82.7c3.2,0,5.8,2.6,5.8,5.9v63.1ZM79.5,9.2c-.6-.6-1.6-.6-2.3,0-.6.6-.6,1.6,0,2.3l14.3,14.3c.3.3.7.5,1.1.5s.8-.2,1.1-.5c.6-.6.6-1.6,0-2.3l-14.3-14.3ZM69.1,9.3c-.6-.6-1.6-.6-2.3,0-.6.6-.6,1.6,0,2.3l24.3,24.3c.3.3.7.5,1.1.5s.8-.2,1.1-.5c.6-.6.6-1.6,0-2.3l-24.3-24.3ZM56.3,9.7c.6-.6,1.6-.6,2.3,0l33.7,33.7c.6.6.6,1.6,0,2.3-.3.3-.7.5-1.1.5s-.8-.2-1.1-.5L56.3,12c-.6-.6-.6-1.6,0-2.3Z"></path>
</svg>
